<?xml version="1.0" encoding="UTF-8" standalone="no"?>
<!DOCTYPE svg PUBLIC "-//W3C//DTD SVG 1.1//EN"
 "http://www.w3.org/Graphics/SVG/1.1/DTD/svg11.dtd">
<!-- Generated by graphviz version 2.38.0 (20140413.2041)
 -->
<!-- Title: G Pages: 1 -->
<svg width="361pt" height="203pt"
 viewBox="0.00 0.00 360.66 203.00" xmlns="http://www.w3.org/2000/svg" xmlns:xlink="http://www.w3.org/1999/xlink">
<g id="graph0" class="graph" transform="scale(1 1) rotate(0) translate(4 199)">
<title>G</title>
<polygon fill="white" stroke="none" points="-4,4 -4,-199 356.659,-199 356.659,4 -4,4"/>
<g id="clust1" class="cluster"><title>cluster_Global</title>
<path fill="none" stroke="gray" d="M172.834,-8C172.834,-8 332.659,-8 332.659,-8 338.659,-8 344.659,-14 344.659,-20 344.659,-20 344.659,-175 344.659,-175 344.659,-181 338.659,-187 332.659,-187 332.659,-187 172.834,-187 172.834,-187 166.834,-187 160.834,-181 160.834,-175 160.834,-175 160.834,-20 160.834,-20 160.834,-14 166.834,-8 172.834,-8"/>
<text text-anchor="middle" x="252.746" y="-174.2" font-family="Times,serif" font-size="11.00" fill="gray">Global</text>
</g>
<!-- \\StMarksSmarty -->
<g id="node1" class="node"><title>\\StMarksSmarty</title>
<polygon fill="none" stroke="black" points="303.56,-160 201.932,-160 201.932,-124 303.56,-124 303.56,-160"/>
<text text-anchor="middle" x="252.746" y="-138.7" font-family="Courier,monospace" font-size="11.00">StMarksSmarty</text>
</g>
<!-- \\Smarty -->
<g id="node4" class="node"><title>\\Smarty</title>
<ellipse fill="none" stroke="black" cx="48.417" cy="-142" rx="38.2197" ry="18"/>
<text text-anchor="middle" x="48.417" y="-137.8" font-family="Times,serif" font-size="14.00" fill="gray">\Smarty</text>
</g>
<!-- \\StMarksSmarty&#45;&gt;\\Smarty -->
<g id="edge1" class="edge"><title>\\StMarksSmarty&#45;&gt;\\Smarty</title>
<path fill="none" stroke="black" d="M201.732,-142C169.771,-142 128.565,-142 97.0728,-142"/>
<polygon fill="none" stroke="black" points="96.7926,-138.5 86.7926,-142 96.7926,-145.5 96.7926,-138.5"/>
</g>
<!-- \\StMarksSmarty_Exception -->
<g id="node2" class="node"><title>\\StMarksSmarty_Exception</title>
<polygon fill="none" stroke="black" points="336.571,-106 168.922,-106 168.922,-70 336.571,-70 336.571,-106"/>
<text text-anchor="middle" x="252.746" y="-84.7" font-family="Courier,monospace" font-size="11.00">StMarksSmarty_Exception</text>
</g>
<!-- \\Exception -->
<g id="node5" class="node"><title>\\Exception</title>
<ellipse fill="none" stroke="black" cx="48.417" cy="-88" rx="48.3341" ry="18"/>
<text text-anchor="middle" x="48.417" y="-83.8" font-family="Times,serif" font-size="14.00" fill="gray">\Exception</text>
</g>
<!-- \\StMarksSmarty_Exception&#45;&gt;\\Exception -->
<g id="edge2" class="edge"><title>\\StMarksSmarty_Exception&#45;&gt;\\Exception</title>
<path fill="none" stroke="black" d="M168.867,-88C148.146,-88 126.366,-88 107.161,-88"/>
<polygon fill="none" stroke="black" points="107.078,-84.5001 97.078,-88 107.078,-91.5001 107.078,-84.5001"/>
</g>
<!-- \\NotificationMessage -->
<g id="node3" class="node"><title>\\NotificationMessage</title>
<polygon fill="none" stroke="black" points="323.667,-52 181.825,-52 181.825,-16 323.667,-16 323.667,-52"/>
<text text-anchor="middle" x="252.746" y="-30.7" font-family="Courier,monospace" font-size="11.00">NotificationMessage</text>
</g>
</g>
</svg>
