<?xml version="1.0" encoding="UTF-8" standalone="no"?>
<!DOCTYPE svg PUBLIC "-//W3C//DTD SVG 1.1//EN"
 "http://www.w3.org/Graphics/SVG/1.1/DTD/svg11.dtd">
<!-- Generated by graphviz version 2.38.0 (20140413.2041)
 -->
<!-- Title: G Pages: 1 -->
<svg width="530pt" height="165pt"
 viewBox="0.00 0.00 529.78 165.00" xmlns="http://www.w3.org/2000/svg" xmlns:xlink="http://www.w3.org/1999/xlink">
<g id="graph0" class="graph" transform="scale(1 1) rotate(0) translate(4 161)">
<title>G</title>
<polygon fill="white" stroke="none" points="-4,4 -4,-161 525.783,-161 525.783,4 -4,4"/>
<g id="clust1" class="cluster"><title>cluster_Global</title>
<path fill="none" stroke="gray" d="M375.969,-8C375.969,-8 501.783,-8 501.783,-8 507.783,-8 513.783,-14 513.783,-20 513.783,-20 513.783,-137 513.783,-137 513.783,-143 507.783,-149 501.783,-149 501.783,-149 375.969,-149 375.969,-149 369.969,-149 363.969,-143 363.969,-137 363.969,-137 363.969,-20 363.969,-20 363.969,-14 369.969,-8 375.969,-8"/>
<text text-anchor="middle" x="438.876" y="-136.2" font-family="Times,serif" font-size="11.00" fill="gray">Global</text>
</g>
<g id="clust2" class="cluster"><title>cluster_\smtech</title>
<path fill="none" stroke="gray" d="M383.969,-16C383.969,-16 493.783,-16 493.783,-16 499.783,-16 505.783,-22 505.783,-28 505.783,-28 505.783,-110 505.783,-110 505.783,-116 499.783,-122 493.783,-122 493.783,-122 383.969,-122 383.969,-122 377.969,-122 371.969,-116 371.969,-110 371.969,-110 371.969,-28 371.969,-28 371.969,-22 377.969,-16 383.969,-16"/>
<text text-anchor="middle" x="438.876" y="-109.2" font-family="Times,serif" font-size="11.00" fill="gray">smtech</text>
</g>
<g id="clust3" class="cluster"><title>cluster_\smtech\StMarksSmarty</title>
<path fill="none" stroke="gray" d="M391.969,-24C391.969,-24 485.783,-24 485.783,-24 491.783,-24 497.783,-30 497.783,-36 497.783,-36 497.783,-83 497.783,-83 497.783,-89 491.783,-95 485.783,-95 485.783,-95 391.969,-95 391.969,-95 385.969,-95 379.969,-89 379.969,-83 379.969,-83 379.969,-36 379.969,-36 379.969,-30 385.969,-24 391.969,-24"/>
<text text-anchor="middle" x="438.876" y="-82.2" font-family="Times,serif" font-size="11.00" fill="gray">StMarksSmarty</text>
</g>
<!-- \\smtech\\StMarksSmarty\\StMarksSmarty -->
<g id="node1" class="node"><title>\\smtech\\StMarksSmarty\\StMarksSmarty</title>
<polygon fill="none" stroke="black" points="489.69,-68 388.062,-68 388.062,-32 489.69,-32 489.69,-68"/>
<text text-anchor="middle" x="438.876" y="-46.7" font-family="Courier,monospace" font-size="11.00">StMarksSmarty</text>
</g>
<!-- \\Battis\\BootstrapSmarty\\BootstrapSmarty -->
<g id="node2" class="node"><title>\\Battis\\BootstrapSmarty\\BootstrapSmarty</title>
<ellipse fill="none" stroke="black" cx="157.984" cy="-50" rx="157.969" ry="18"/>
<text text-anchor="middle" x="157.984" y="-45.8" font-family="Times,serif" font-size="14.00" fill="gray">\Battis\BootstrapSmarty\BootstrapSmarty</text>
</g>
<!-- \\smtech\\StMarksSmarty\\StMarksSmarty&#45;&gt;\\Battis\\BootstrapSmarty\\BootstrapSmarty -->
<g id="edge1" class="edge"><title>\\smtech\\StMarksSmarty\\StMarksSmarty&#45;&gt;\\Battis\\BootstrapSmarty\\BootstrapSmarty</title>
<path fill="none" stroke="black" d="M388.016,-50C370,-50 348.525,-50 326.053,-50"/>
<polygon fill="none" stroke="black" points="326.019,-46.5001 316.019,-50 326.019,-53.5001 326.019,-46.5001"/>
</g>
</g>
</svg>
