<?xml version="1.0" encoding="UTF-8" standalone="no"?>
<!DOCTYPE svg PUBLIC "-//W3C//DTD SVG 1.1//EN"
 "http://www.w3.org/Graphics/SVG/1.1/DTD/svg11.dtd">
<!-- Generated by graphviz version 2.38.0 (20140413.2041)
 -->
<!-- Title: G Pages: 1 -->
<svg width="676pt" height="219pt"
 viewBox="0.00 0.00 676.34 219.00" xmlns="http://www.w3.org/2000/svg" xmlns:xlink="http://www.w3.org/1999/xlink">
<g id="graph0" class="graph" transform="scale(1 1) rotate(0) translate(4 215)">
<title>G</title>
<polygon fill="white" stroke="none" points="-4,4 -4,-215 672.343,-215 672.343,4 -4,4"/>
<g id="clust1" class="cluster"><title>cluster_Global</title>
<path fill="none" stroke="gray" d="M456.519,-8C456.519,-8 648.343,-8 648.343,-8 654.343,-8 660.343,-14 660.343,-20 660.343,-20 660.343,-191 660.343,-191 660.343,-197 654.343,-203 648.343,-203 648.343,-203 456.519,-203 456.519,-203 450.519,-203 444.519,-197 444.519,-191 444.519,-191 444.519,-20 444.519,-20 444.519,-14 450.519,-8 456.519,-8"/>
<text text-anchor="middle" x="552.431" y="-190.2" font-family="Times,serif" font-size="11.00" fill="gray">Global</text>
</g>
<g id="clust2" class="cluster"><title>cluster_\smtech</title>
<path fill="none" stroke="gray" d="M464.519,-16C464.519,-16 640.343,-16 640.343,-16 646.343,-16 652.343,-22 652.343,-28 652.343,-28 652.343,-164 652.343,-164 652.343,-170 646.343,-176 640.343,-176 640.343,-176 464.519,-176 464.519,-176 458.519,-176 452.519,-170 452.519,-164 452.519,-164 452.519,-28 452.519,-28 452.519,-22 458.519,-16 464.519,-16"/>
<text text-anchor="middle" x="552.431" y="-163.2" font-family="Times,serif" font-size="11.00" fill="gray">smtech</text>
</g>
<g id="clust3" class="cluster"><title>cluster_\smtech\StMarksSmarty</title>
<path fill="none" stroke="gray" d="M472.519,-24C472.519,-24 632.343,-24 632.343,-24 638.343,-24 644.343,-30 644.343,-36 644.343,-36 644.343,-137 644.343,-137 644.343,-143 638.343,-149 632.343,-149 632.343,-149 472.519,-149 472.519,-149 466.519,-149 460.519,-143 460.519,-137 460.519,-137 460.519,-36 460.519,-36 460.519,-30 466.519,-24 472.519,-24"/>
<text text-anchor="middle" x="552.431" y="-136.2" font-family="Times,serif" font-size="11.00" fill="gray">StMarksSmarty</text>
</g>
<!-- \\smtech\\StMarksSmarty\\StMarksSmarty -->
<g id="node1" class="node"><title>\\smtech\\StMarksSmarty\\StMarksSmarty</title>
<polygon fill="none" stroke="black" points="603.245,-122 501.617,-122 501.617,-86 603.245,-86 603.245,-122"/>
<text text-anchor="middle" x="552.431" y="-100.7" font-family="Courier,monospace" font-size="11.00">StMarksSmarty</text>
</g>
<!-- \\Battis\\BootstrapSmarty\\BootstrapSmarty -->
<g id="node3" class="node"><title>\\Battis\\BootstrapSmarty\\BootstrapSmarty</title>
<ellipse fill="none" stroke="black" cx="198.259" cy="-104" rx="157.969" ry="18"/>
<text text-anchor="middle" x="198.259" y="-99.8" font-family="Times,serif" font-size="14.00" fill="gray">\Battis\BootstrapSmarty\BootstrapSmarty</text>
</g>
<!-- \\smtech\\StMarksSmarty\\StMarksSmarty&#45;&gt;\\Battis\\BootstrapSmarty\\BootstrapSmarty -->
<g id="edge1" class="edge"><title>\\smtech\\StMarksSmarty\\StMarksSmarty&#45;&gt;\\Battis\\BootstrapSmarty\\BootstrapSmarty</title>
<path fill="none" stroke="black" d="M501.347,-104C465.727,-104 415.66,-104 366.512,-104"/>
<polygon fill="none" stroke="black" points="366.373,-100.5 356.373,-104 366.373,-107.5 366.373,-100.5"/>
</g>
<!-- \\smtech\\StMarksSmarty\\StMarksSmarty_Exception -->
<g id="node2" class="node"><title>\\smtech\\StMarksSmarty\\StMarksSmarty_Exception</title>
<polygon fill="none" stroke="black" points="636.256,-68 468.606,-68 468.606,-32 636.256,-32 636.256,-68"/>
<text text-anchor="middle" x="552.431" y="-46.7" font-family="Courier,monospace" font-size="11.00">StMarksSmarty_Exception</text>
</g>
<!-- \\Battis\\BootstrapSmarty\\BootstrapSmarty_Exception -->
<g id="node4" class="node"><title>\\Battis\\BootstrapSmarty\\BootstrapSmarty_Exception</title>
<ellipse fill="none" stroke="black" cx="198.259" cy="-50" rx="198.019" ry="18"/>
<text text-anchor="middle" x="198.259" y="-45.8" font-family="Times,serif" font-size="14.00" fill="gray">\Battis\BootstrapSmarty\BootstrapSmarty_Exception</text>
</g>
<!-- \\smtech\\StMarksSmarty\\StMarksSmarty_Exception&#45;&gt;\\Battis\\BootstrapSmarty\\BootstrapSmarty_Exception -->
<g id="edge2" class="edge"><title>\\smtech\\StMarksSmarty\\StMarksSmarty_Exception&#45;&gt;\\Battis\\BootstrapSmarty\\BootstrapSmarty_Exception</title>
<path fill="none" stroke="black" d="M468.417,-50C449.372,-50 428.288,-50 406.549,-50"/>
<polygon fill="none" stroke="black" points="406.519,-46.5001 396.519,-50 406.519,-53.5001 406.519,-46.5001"/>
</g>
</g>
</svg>
